<svg width="1480" height="340" viewBox="0 0 1480 340" fill="none" xmlns="http://www.w3.org/2000/svg" role="img" aria-labelledby="title desc">
  <title id="title">Alektra Renewable</title>
  <desc id="desc">Alektra Renewable green wordmark with stylized leaf and solar symbol.</desc>
  <defs>
    <linearGradient id="leaf" x1="0" y1="0" x2="1" y2="1">
      <stop offset="0" stop-color="#0a6d34"/>
      <stop offset="0.55" stop-color="#1e9b4b"/>
      <stop offset="1" stop-color="#8ad163"/>
    </linearGradient>
    <linearGradient id="word" x1="0" y1="0" x2="1" y2="0">
      <stop offset="0" stop-color="#005c2d"/>
      <stop offset="0.48" stop-color="#08743b"/>
      <stop offset="1" stop-color="#65b845"/>
    </linearGradient>
  </defs>
  <path d="M72 123c38-17 75-9 102 24-44 8-80 1-102-24Z" fill="url(#leaf)" opacity=".84"/>
  <path d="M188 124c31-22 66-23 100-2-36 24-71 27-100 2Z" fill="url(#leaf)" opacity=".72"/>
  <path d="M94 185 195 30l96 155h-43l-54-88-56 88H94Z" fill="#00733a"/>
  <path d="M740 184a89 89 0 0 1 178 0" stroke="#08743b" stroke-width="13" stroke-linecap="round"/>
  <path d="M829 70V29M721 108l-31-31M937 108l31-31" stroke="#08743b" stroke-width="12" stroke-linecap="round"/>
  <text x="0" y="302" font-family="Georgia, 'Times New Roman', serif" font-size="154" font-weight="700" letter-spacing="0" fill="url(#word)">ALEKTRA RENEWABLE</text>
</svg>
